# xmcd
#
# Track frame offsets:
#	150
#	13397
#	24258
#	38537
#	51150
#	62113
#	76359
#	90231
#	103427
#	116040
#	126360
#	140808
#	154432
#	168654
#	179060
#	194528
#	206358
#	219548
#
# Disc length: 3139 seconds
#
# Revision: 1
# Processed by: cddbd v1.5.2PL0 Copyright (c) Steve Scherf et al.
# Submitted via: audiograbber 1.83.01
#
DISCID=0f0c4112
DTITLE=John Lee Hooker - Masters of Music [Disc 3]
DYEAR=1900
DGENRE=
TTITLE0=Momma Poppa Boogie
TTITLE1=Send me your Pillow
TTITLE2=Henry's Swing Club
TTITLE3=Graveyard Blues
TTITLE4=Real real Gone
TTITLE5=Whistlin and Moaning Blues
TTITLE6=Three long Years Ago
TTITLE7=Down at the Landing
TTITLE8=Leave my Wife Alone
TTITLE9=Stuttering Blues
TTITLE10=Forgive Me
TTITLE11=Black Cat Blues
TTITLE12=I Need Love so Bad
TTITLE13=Walkin this Highway
TTITLE14=Poor Slim
TTITLE15=Love my Baby
TTITLE16=Hoogie Boogie
TTITLE17=My first Wife Left Me
EXTD=
EXTT0=
EXTT1=
EXTT2=
EXTT3=
EXTT4=
EXTT5=
EXTT6=
EXTT7=
EXTT8=
EXTT9=
EXTT10=
EXTT11=
EXTT12=
EXTT13=
EXTT14=
EXTT15=
EXTT16=
EXTT17=
PLAYORDER=
